<svg xmlns="http://www.w3.org/2000/svg" width="113" height="39.92" viewBox="0 0 113 39.92">
  <path id="Trazado_1" data-name="Trazado 1" d="M10-9.14C10-12.6,8.94-14,5.44-14H.62V0H4.66V-4.52h.06L6.06,0h4.1L8.26-5.08C9.4-5.72,10-6.94,10-9.14ZM4.6-10.78h.44c.7,0,.94.46.94,1.74,0,1.3-.24,1.76-.94,1.76H4.6ZM18.26-5.44V-8.72h-3.2v-1.96h3.42V-14H11V0h7.56V-3.32h-3.5V-5.44Zm1.1-.78C19.36-1.7,20.7.16,24.6.16a10.028,10.028,0,0,0,3.94-.72V-8.2H24.9v4.84a1.632,1.632,0,0,1-.36.04c-.8,0-.98-.52-.98-2.5V-7.14c0-1.58.06-2.62.74-3.1A2.87,2.87,0,0,1,26-10.6a8.955,8.955,0,0,1,1.88.18v-3.34a10.559,10.559,0,0,0-2.98-.4,5.877,5.877,0,0,0-3.6.88c-1.52,1.08-1.94,3.24-1.94,6.3ZM29.72,0H33.8V-14H29.72ZM42.78-4.26c0-1.94-.54-2.98-1.88-3.82l-1.1-.68c-.68-.42-1-.66-1-1.18,0-.6.44-.76,1.4-.76a11.408,11.408,0,0,1,1.98.2v-3.24a10.542,10.542,0,0,0-2.92-.4c-3.22,0-4.5,1.12-4.5,4.2A3.984,3.984,0,0,0,36.64-6.1l1.1.7c.66.42.98.58.98,1.22,0,.68-.46.84-1.4.84a11.538,11.538,0,0,1-2.36-.28V-.34a10.122,10.122,0,0,0,3.22.48C41.36.14,42.78-.92,42.78-4.26Zm.16-6.42h2.22V0h4.08V-10.68h2.22V-14H42.94ZM61.7-9.14c0-3.46-1.06-4.86-4.56-4.86H52.32V0h4.04V-4.52h.06L57.76,0h4.1l-1.9-5.08C61.1-5.72,61.7-6.94,61.7-9.14Zm-5.4-1.64h.44c.7,0,.94.46.94,1.74,0,1.3-.24,1.76-.94,1.76H56.3ZM62.18,0h3.94l.32-2.72H68.3L68.64,0h4.12L70.1-14H64.86Zm4.94-8.18c.08-.64.16-1.36.22-2.08h.08c.06.72.12,1.44.2,2.08l.28,2.22H66.84ZM75.44,0h3.94l.32-2.72h1.86L81.9,0h4.12L83.36-14H78.12Zm4.94-8.18c.08-.64.16-1.36.22-2.08h.08c.06.72.12,1.44.2,2.08l.28,2.22H80.1Zm10.88-5.98c-3.46,0-5,1.96-5,6.92v.48c0,4.66,1.36,6.68,4.38,6.9a6.021,6.021,0,0,0,5.18,2.6V-.54a4.157,4.157,0,0,1-1.54-.18V-.76c1.3-1.04,1.98-3,1.98-6v-.48C96.26-12.2,94.7-14.16,91.26-14.16Zm0,11.02c-.3,0-.44-.12-.56-.44a10.5,10.5,0,0,1-.26-2.92v-1a10.5,10.5,0,0,1,.26-2.92c.12-.32.26-.44.56-.44.28,0,.42.12.56.44a10.685,10.685,0,0,1,.24,2.92v1a10.685,10.685,0,0,1-.24,2.92C91.68-3.26,91.54-3.14,91.26-3.14Zm10.8,3.3a5.153,5.153,0,0,0,3.36-.86c.9-.7,1.34-1.88,1.34-3.72V-14h-3.94v9.34c0,1.02-.16,1.36-.74,1.36s-.74-.34-.74-1.36V-14H97.26v9.58c0,1.82.4,3,1.26,3.7A5.5,5.5,0,0,0,102.06.16Zm5.9-.16h4.08V-14h-4.08Zm3.46-14.74,1.82-2.96v-.06H109.5l-.98,3.02ZM.24,11.32H2.46V22H6.54V11.32H8.76V8H.24ZM14.38,22.16a5.153,5.153,0,0,0,3.36-.86c.9-.7,1.34-1.88,1.34-3.72V8H15.14v9.34c0,1.02-.16,1.36-.74,1.36s-.74-.34-.74-1.36V8H9.58v9.58c0,1.82.4,3,1.26,3.7A5.5,5.5,0,0,0,14.38,22.16Zm8-10.84H24.6V22h4.08V11.32H30.9V8H22.38ZM31.78,22h4.08V8H31.78Zm9.36-7.5c0-1.18.02-2.14.54-2.68a2.059,2.059,0,0,1,1.54-.42,9.8,9.8,0,0,1,1.54.14V8.22a8.352,8.352,0,0,0-2.66-.38,5.075,5.075,0,0,0-3.52,1.04c-1.16,1.04-1.64,2.96-1.64,5.88v.48c0,2.94.46,4.84,1.64,5.88a5.152,5.152,0,0,0,3.56,1.04,8.4,8.4,0,0,0,2.68-.38V18.46a9.835,9.835,0,0,1-1.56.14,2.084,2.084,0,0,1-1.56-.42c-.52-.54-.56-1.5-.56-2.68ZM45.9,22h4.08V16.82h.08L51.66,22h4.26L53.3,14.64,55.82,8H51.7l-1.64,4.78h-.08V8H45.9Zm17.92-5.44V13.28h-3.2V11.32h3.42V8H56.56V22h7.56V18.68h-3.5V16.56Zm1-5.24h2.22V22h4.08V11.32h2.22V8H64.82Z" transform="translate(-0.24 17.76)" fill="#fff"/>
</svg>
